Coordinates
version=1
nRows=6
nColumns=63
inDegrees=yes

Units are S.I. units (second, meters, Newtons, ...)
If the header above contains a line with 'inDegrees', this indicates whether rotational values are in degrees (yes) or radians (no).

endheader
time	pelvis_tilt	pelvis_list	pelvis_rotation	pelvis_tx	pelvis_ty	pelvis_tz	hip_flexion_r	hip_adduction_r	hip_rotation_r	knee_angle_r	knee_angle_r_beta	ankle_angle_r	subtalar_angle_r	mtp_angle_r	hip_flexion_l	hip_adduction_l	hip_rotation_l	knee_angle_l	knee_angle_l_beta	ankle_angle_l	subtalar_angle_l	mtp_angle_l	L5_S1_Flex_Ext	L5_S1_Lat_Bending	L5_S1_axial_rotation	L4_L5_Flex_Ext	L4_L5_Lat_Bending	L4_L5_axial_rotation	L3_L4_Flex_Ext	L3_L4_Lat_Bending	L3_L4_axial_rotation	L2_L3_Flex_Ext	L2_L3_Lat_Bending	L2_L3_axial_rotation	L1_L2_Flex_Ext	L1_L2_Lat_Bending	L1_L2_axial_rotation	L1_T12_Flex_Ext	L1_T12_Lat_Bending	L1_T12_axial_rotation	Abs_r3	Abs_r2	Abs_r1	Abs_t1	Abs_t2	neck_flexion	neck_bending	neck_rotation	arm_flex_r	arm_add_r	arm_rot_r	elbow_flex_r	pro_sup_r	wrist_flex_r	wrist_dev_r	arm_flex_l	arm_add_l	arm_rot_l	elbow_flex_l	pro_sup_l	wrist_flex_l	wrist_dev_l
      3.41666667	     -3.60675643	     -0.77168860	     84.70409062	      0.22017360	      0.77267169	      0.88144636	     -0.87443536	     -1.68044318	     13.33566201	      7.07644271	      0.12350722	     31.08181239	     -2.28129350	      0.00000000	     -3.31819060	      3.73067901	      5.15651301	      2.60023213	      0.04538261	     32.15889958	    -12.33299020	      0.00000000	     -0.19510371	     -0.34200475	      1.95590190	     -0.36232710	     -0.45486632	      2.07814576	     -0.32053588	     -0.83155036	      2.07814576	     -0.22298403	     -0.83155036	      1.71141416	     -0.18117330	     -0.69741609	      1.58917029	     -0.11148226	     -0.52976536	      1.46692642	     -1.39360628	     -3.86882618	     10.87813957	      0.00000000	      0.00000000	     14.50764441	      5.10122365	      4.58454905	      4.42776719	     -9.16607074	     38.31423714	     28.69851856	     67.06247007	     -6.64008414	      1.09765287	     24.53192265	     -6.87329135	    137.91500009	     14.05912764	     27.58667487	    -19.80333297	     -1.54865671
      3.43333333	     -3.62426122	     -0.88483128	     84.93471802	      0.21996396	      0.77295584	      0.88206182	     -0.73463661	     -1.67690604	     12.98982215	      7.08067327	      0.12358106	     30.86180520	     -2.32895856	      0.00000000	     -2.97724974	      3.71538186	      4.93523930	      2.92621355	      0.05107206	     32.32253523	    -11.80930416	      0.00000000	     -0.17297488	     -0.36233099	      1.99754056	     -0.32123165	     -0.48190022	      2.12238685	     -0.28418043	     -0.88097157	      2.12238685	     -0.19769299	     -0.88097157	      1.74784799	     -0.16062448	     -0.73886536	      1.62300171	     -0.09883785	     -0.56125070	      1.49815542	     -1.23554229	     -4.09876063	     11.10972135	      0.00000000	      0.00000000	     14.29556017	      5.34983330	      3.30501274	      4.89808944	     -9.64663668	     40.20018956	     30.00231043	     68.68078035	     -7.77151456	      1.97954281	     25.63346853	     -5.43718079	    143.13412456	     11.94358605	     32.75756565	    -18.20471484	     -0.89425886
      3.45000000	     -3.60336411	     -1.03864574	     85.41215782	      0.21956236	      0.77300344	      0.88324858	     -0.51280642	     -1.61026813	     12.44602261	      7.19680582	      0.12560796	     30.68475400	     -2.46497692	      0.00000000	     -2.47098953	      3.62056487	      5.13841435	      3.43071649	      0.05987730	     32.49934831	    -11.47941158	      0.00000000	     -0.15824109	     -0.38026906	      1.96614865	     -0.29386953	     -0.50575785	      2.08903294	     -0.25997429	     -0.92458620	      2.08903294	     -0.18085374	     -0.92458620	      1.72038007	     -0.14694268	     -0.77544467	      1.59749578	     -0.09041896	     -0.58903678	      1.47461149	     -1.13030030	     -4.30167968	     10.93512897	      0.00000000	      0.00000000	     14.32110230	      5.40618338	      2.03758185	      5.68749401	    -10.19007041	     42.38950568	     31.26739802	     71.37423426	     -8.08151797	      3.19751092	     26.66602688	     -4.34788132	    146.11806467	     10.20334238	     35.29654144	    -18.10319398	     -2.49778568
      3.46666667	     -3.65382441	     -1.26950011	     86.16539968	      0.21847966	      0.77285926	      0.88429441	     -0.28359871	     -1.70977693	     10.76431893	      7.23235915	      0.12622848	     30.85653526	     -1.23574718	      0.00000000	     -1.84851519	      3.60285408	      4.86875850	      3.97093644	      0.06930592	     32.87273458	    -10.34634176	      0.00000000	     -0.13949413	     -0.38380540	      1.84069471	     -0.25905454	     -0.51046119	      1.95573813	     -0.22917490	     -0.93318446	      1.95573813	     -0.15942784	     -0.93318446	      1.61060787	     -0.12953425	     -0.78265598	      1.49556445	     -0.07970694	     -0.59451457	      1.38052103	     -0.99639260	     -4.34168347	     10.23739177	      0.00000000	      0.00000000	     14.28848640	      5.34139773	      2.15252978	      5.78620722	    -10.44874754	     41.00470367	     33.21405233	     80.99896536	     -8.18403687	      5.94228825	     26.03315408	     -2.09760487	    179.01457090	      2.68787561	      7.55182109	    -12.84243380	     -3.23423333
      3.48333333	     -3.68008908	     -1.42749237	     86.93539977	      0.21738465	      0.77262822	      0.88600988	     -0.11935038	     -1.75658117	      9.70202890	      7.23292383	      0.12623834	     31.02404579	     -0.76696688	      0.00000000	     -1.24931860	      3.58503561	      5.07859343	      4.52981389	      0.07906017	     33.11579472	     -9.95355961	      0.00000000	     -0.13835293	     -0.39665759	      1.71462315	     -0.25693522	     -0.52755459	      1.82178710	     -0.22730002	     -0.96443326	      1.82178710	     -0.15812356	     -0.96443326	      1.50029526	     -0.12847453	     -0.80886416	      1.39313131	     -0.07905486	     -0.61442261	      1.28596737	     -0.98824111	     -4.48706998	      9.53621960	      0.00000000	      0.00000000	     14.37570112	      5.50417616	      1.73447536	      7.12821274	    -11.18844914	     44.56750735	     34.31576074	     84.35870870	     -7.04819452	      7.65627713	     26.94108583	     -1.68094841	    176.95920243	      1.93516605	      5.24488078	    -14.42475632	     -6.16809008
      3.50000000	     -3.62815331	     -1.62035590	     87.64287371	      0.21579351	      0.77234713	      0.88784861	      0.12494901	     -1.84691601	      7.36100899	      7.26078212	      0.12672455	     31.69283089	      1.73861070	      0.00000000	     -0.57064091	      3.52160000	      4.88107264	      5.14338932	      0.08976908	     33.59733226	     -9.10803710	      0.00000000	     -0.13736510	     -0.39143403	      1.63093240	     -0.25510073	     -0.52060726	      1.73286567	     -0.22567713	     -0.95173271	      1.73286567	     -0.15699458	     -0.95173271	      1.42706585	     -0.12755724	     -0.79821228	      1.32513257	     -0.07849042	     -0.60633132	      1.22319930	     -0.98118520	     -4.42798007	      9.07075671	      0.00000000	      0.00000000	     14.54525244	      5.39348015	      1.17662229	      8.43965458	    -11.90665906	     47.95037263	     35.07553985	     85.22410347	     -3.53502498	      9.64496432	     27.83540573	     -1.15835104	    168.07961366	      2.20993709	      3.82063448	    -14.77715513	    -11.35509672
